<?xml version="1.0" encoding="UTF-8" standalone="no"?>
<!DOCTYPE svg PUBLIC "-//W3C//DTD SVG 1.1//EN" "http://www.w3.org/Graphics/SVG/1.1/DTD/svg11.dtd">
<svg version="1.1" xmlns="http://www.w3.org/2000/svg" xmlns:xlink="http://www.w3.org/1999/xlink" preserveAspectRatio="xMidYMid meet" viewBox="0 0 640 640" width="640" height="640"><defs><path d="M602.14 0C623.05 0 640 16.95 640 37.86C640 158.29 640 481.71 640 602.14C640 623.05 623.05 640 602.14 640C481.71 640 158.29 640 37.86 640C16.95 640 0 623.05 0 602.14C0 481.71 0 158.29 0 37.86C0 16.95 16.95 0 37.86 0C158.29 0 481.71 0 602.14 0Z" id="h1X9mUiS3Y"></path><path d="M552.26 32C582.8 32 607.56 56.76 607.56 87.3C607.56 191.44 607.56 448.56 607.56 552.7C607.56 583.24 582.8 608 552.26 608C448.12 608 190.99 608 86.85 608C56.31 608 31.56 583.24 31.56 552.7C31.56 448.56 31.56 191.44 31.56 87.3C31.56 56.76 56.31 32 86.85 32C190.99 32 448.12 32 552.26 32Z" id="c1xlJWecAR"></path><path d="M522.13 64C551.64 64 575.56 87.92 575.56 117.43C575.56 209.14 575.56 430.86 575.56 522.57C575.56 552.08 551.64 576 522.13 576C430.42 576 208.7 576 116.98 576C87.48 576 63.56 552.08 63.56 522.57C63.56 430.86 63.56 209.14 63.56 117.43C63.56 87.92 87.48 64 116.98 64C208.7 64 430.42 64 522.13 64Z" id="chGQtdSTz"></path><path d="" id="i3lMZZOhGX"></path><path d="M575.56 64L54.86 576" id="g2VpNiwEs"></path></defs><g><g><g><use xlink:href="#h1X9mUiS3Y" opacity="1" fill="#008890" fill-opacity="1"></use></g><g><use xlink:href="#c1xlJWecAR" opacity="1" fill="#ffffff" fill-opacity="1"></use></g><g><use xlink:href="#chGQtdSTz" opacity="1" fill="#5ecbb7" fill-opacity="1"></use><g><use xlink:href="#chGQtdSTz" opacity="1" fill-opacity="0" stroke="#29c0f0" stroke-width="1" stroke-opacity="1"></use></g></g><g><g><use xlink:href="#i3lMZZOhGX" opacity="1" fill-opacity="0" stroke="#000000" stroke-width="1" stroke-opacity="1"></use></g></g><g><use xlink:href="#g2VpNiwEs" opacity="1" fill="#ffffff" fill-opacity="1"></use><g><use xlink:href="#g2VpNiwEs" opacity="1" fill-opacity="0" stroke="#ffffff" stroke-width="32" stroke-opacity="1"></use></g></g></g></g></svg>